G04 #@! TF.GenerationSoftware,KiCad,Pcbnew,5.0.2+dfsg1-1*
G04 #@! TF.CreationDate,2020-09-22T14:15:05+02:00*
G04 #@! TF.ProjectId,bal,62616c2e-6b69-4636-9164-5f7063625858,rev?*
G04 #@! TF.SameCoordinates,Original*
G04 #@! TF.FileFunction,Legend,Top*
G04 #@! TF.FilePolarity,Positive*
%FSLAX46Y46*%
G04 Gerber Fmt 4.6, Leading zero omitted, Abs format (unit mm)*
G04 Created by KiCad (PCBNEW 5.0.2+dfsg1-1) date Tue 22 Sep 2020 02:15:05 PM CEST*
%MOMM*%
%LPD*%
G01*
G04 APERTURE LIST*
%ADD10C,0.200000*%
%ADD11C,0.120000*%
%ADD12C,0.150000*%
G04 APERTURE END LIST*
D10*
X111500000Y-131000000D02*
X111500000Y-79000000D01*
X148500000Y-131000000D02*
X111500000Y-131000000D01*
X148500000Y-79000000D02*
X148500000Y-131000000D01*
X111500000Y-79000000D02*
X148500000Y-79000000D01*
D11*
G04 #@! TO.C,C1*
X152813164Y-92460400D02*
X151609036Y-92460400D01*
X152813164Y-94280400D02*
X151609036Y-94280400D01*
G04 #@! TO.C,C2*
X158602000Y-108937036D02*
X158602000Y-110141164D01*
X160422000Y-108937036D02*
X160422000Y-110141164D01*
G04 #@! TO.C,C3*
X143503236Y-132380400D02*
X144707364Y-132380400D01*
X143503236Y-130560400D02*
X144707364Y-130560400D01*
G04 #@! TO.C,C4*
X144808964Y-122432400D02*
X143604836Y-122432400D01*
X144808964Y-124252400D02*
X143604836Y-124252400D01*
G04 #@! TO.C,C5*
X164232000Y-111969964D02*
X164232000Y-110765836D01*
X162412000Y-111969964D02*
X162412000Y-110765836D01*
G04 #@! TO.C,R1*
X151631236Y-99563600D02*
X152835364Y-99563600D01*
X151631236Y-97743600D02*
X152835364Y-97743600D01*
G04 #@! TO.C,R2*
X99053236Y-100173200D02*
X100257364Y-100173200D01*
X99053236Y-98353200D02*
X100257364Y-98353200D01*
G04 #@! TO.C,R3*
X99053236Y-105050000D02*
X100257364Y-105050000D01*
X99053236Y-103230000D02*
X100257364Y-103230000D01*
G04 #@! TO.C,R4*
X161039564Y-87990000D02*
X159835436Y-87990000D01*
X161039564Y-89810000D02*
X159835436Y-89810000D01*
G04 #@! TO.C,R5*
X157229564Y-84180000D02*
X156025436Y-84180000D01*
X157229564Y-86000000D02*
X156025436Y-86000000D01*
G04 #@! TO.C,R6*
X162538164Y-96422800D02*
X161334036Y-96422800D01*
X162538164Y-98242800D02*
X161334036Y-98242800D01*
G04 #@! TO.C,R7*
X162527064Y-93679600D02*
X161322936Y-93679600D01*
X162527064Y-95499600D02*
X161322936Y-95499600D01*
G04 #@! TO.C,R8*
X160622064Y-118317600D02*
X159417936Y-118317600D01*
X160622064Y-120137600D02*
X159417936Y-120137600D01*
G04 #@! TO.C,R9*
X160607764Y-122229200D02*
X159403636Y-122229200D01*
X160607764Y-124049200D02*
X159403636Y-124049200D01*
G04 #@! TO.C,R10*
X157610564Y-125785200D02*
X156406436Y-125785200D01*
X157610564Y-127605200D02*
X156406436Y-127605200D01*
G04 #@! TO.C,R11*
X157610564Y-129239600D02*
X156406436Y-129239600D01*
X157610564Y-131059600D02*
X156406436Y-131059600D01*
G04 #@! TO.C,R12*
X99104036Y-110130000D02*
X100308164Y-110130000D01*
X99104036Y-108310000D02*
X100308164Y-108310000D01*
G04 #@! TO.C,R13*
X99154836Y-115667200D02*
X100358964Y-115667200D01*
X99154836Y-113847200D02*
X100358964Y-113847200D01*
G04 #@! TO.C,U44*
D12*
X134032380Y-129238095D02*
X134841904Y-129238095D01*
X134937142Y-129190476D01*
X134984761Y-129142857D01*
X135032380Y-129047619D01*
X135032380Y-128857142D01*
X134984761Y-128761904D01*
X134937142Y-128714285D01*
X134841904Y-128666666D01*
X134032380Y-128666666D01*
X134365714Y-127761904D02*
X135032380Y-127761904D01*
X133984761Y-128000000D02*
X134699047Y-128238095D01*
X134699047Y-127619047D01*
X134365714Y-126809523D02*
X135032380Y-126809523D01*
X133984761Y-127047619D02*
X134699047Y-127285714D01*
X134699047Y-126666666D01*
G04 #@! TO.C,U43*
X166249504Y-67617980D02*
X166249504Y-68427504D01*
X166297123Y-68522742D01*
X166344742Y-68570361D01*
X166439980Y-68617980D01*
X166630457Y-68617980D01*
X166725695Y-68570361D01*
X166773314Y-68522742D01*
X166820933Y-68427504D01*
X166820933Y-67617980D01*
X167725695Y-67951314D02*
X167725695Y-68617980D01*
X167487600Y-67570361D02*
X167249504Y-68284647D01*
X167868552Y-68284647D01*
X168154266Y-67617980D02*
X168773314Y-67617980D01*
X168439980Y-67998933D01*
X168582838Y-67998933D01*
X168678076Y-68046552D01*
X168725695Y-68094171D01*
X168773314Y-68189409D01*
X168773314Y-68427504D01*
X168725695Y-68522742D01*
X168678076Y-68570361D01*
X168582838Y-68617980D01*
X168297123Y-68617980D01*
X168201885Y-68570361D01*
X168154266Y-68522742D01*
G04 #@! TO.C,C1*
X152044433Y-95547542D02*
X151996814Y-95595161D01*
X151853957Y-95642780D01*
X151758719Y-95642780D01*
X151615861Y-95595161D01*
X151520623Y-95499923D01*
X151473004Y-95404685D01*
X151425385Y-95214209D01*
X151425385Y-95071352D01*
X151473004Y-94880876D01*
X151520623Y-94785638D01*
X151615861Y-94690400D01*
X151758719Y-94642780D01*
X151853957Y-94642780D01*
X151996814Y-94690400D01*
X152044433Y-94738019D01*
X152996814Y-95642780D02*
X152425385Y-95642780D01*
X152711100Y-95642780D02*
X152711100Y-94642780D01*
X152615861Y-94785638D01*
X152520623Y-94880876D01*
X152425385Y-94928495D01*
G04 #@! TO.C,C2*
X161689142Y-109705766D02*
X161736761Y-109753385D01*
X161784380Y-109896242D01*
X161784380Y-109991480D01*
X161736761Y-110134338D01*
X161641523Y-110229576D01*
X161546285Y-110277195D01*
X161355809Y-110324814D01*
X161212952Y-110324814D01*
X161022476Y-110277195D01*
X160927238Y-110229576D01*
X160832000Y-110134338D01*
X160784380Y-109991480D01*
X160784380Y-109896242D01*
X160832000Y-109753385D01*
X160879619Y-109705766D01*
X160879619Y-109324814D02*
X160832000Y-109277195D01*
X160784380Y-109181957D01*
X160784380Y-108943861D01*
X160832000Y-108848623D01*
X160879619Y-108801004D01*
X160974857Y-108753385D01*
X161070095Y-108753385D01*
X161212952Y-108801004D01*
X161784380Y-109372433D01*
X161784380Y-108753385D01*
G04 #@! TO.C,C3*
X143938633Y-130007542D02*
X143891014Y-130055161D01*
X143748157Y-130102780D01*
X143652919Y-130102780D01*
X143510061Y-130055161D01*
X143414823Y-129959923D01*
X143367204Y-129864685D01*
X143319585Y-129674209D01*
X143319585Y-129531352D01*
X143367204Y-129340876D01*
X143414823Y-129245638D01*
X143510061Y-129150400D01*
X143652919Y-129102780D01*
X143748157Y-129102780D01*
X143891014Y-129150400D01*
X143938633Y-129198019D01*
X144271966Y-129102780D02*
X144891014Y-129102780D01*
X144557680Y-129483733D01*
X144700538Y-129483733D01*
X144795776Y-129531352D01*
X144843395Y-129578971D01*
X144891014Y-129674209D01*
X144891014Y-129912304D01*
X144843395Y-130007542D01*
X144795776Y-130055161D01*
X144700538Y-130102780D01*
X144414823Y-130102780D01*
X144319585Y-130055161D01*
X144271966Y-130007542D01*
G04 #@! TO.C,C4*
X144040233Y-125519542D02*
X143992614Y-125567161D01*
X143849757Y-125614780D01*
X143754519Y-125614780D01*
X143611661Y-125567161D01*
X143516423Y-125471923D01*
X143468804Y-125376685D01*
X143421185Y-125186209D01*
X143421185Y-125043352D01*
X143468804Y-124852876D01*
X143516423Y-124757638D01*
X143611661Y-124662400D01*
X143754519Y-124614780D01*
X143849757Y-124614780D01*
X143992614Y-124662400D01*
X144040233Y-124710019D01*
X144897376Y-124948114D02*
X144897376Y-125614780D01*
X144659280Y-124567161D02*
X144421185Y-125281447D01*
X145040233Y-125281447D01*
G04 #@! TO.C,C5*
X161859142Y-111534566D02*
X161906761Y-111582185D01*
X161954380Y-111725042D01*
X161954380Y-111820280D01*
X161906761Y-111963138D01*
X161811523Y-112058376D01*
X161716285Y-112105995D01*
X161525809Y-112153614D01*
X161382952Y-112153614D01*
X161192476Y-112105995D01*
X161097238Y-112058376D01*
X161002000Y-111963138D01*
X160954380Y-111820280D01*
X160954380Y-111725042D01*
X161002000Y-111582185D01*
X161049619Y-111534566D01*
X160954380Y-110629804D02*
X160954380Y-111105995D01*
X161430571Y-111153614D01*
X161382952Y-111105995D01*
X161335333Y-111010757D01*
X161335333Y-110772661D01*
X161382952Y-110677423D01*
X161430571Y-110629804D01*
X161525809Y-110582185D01*
X161763904Y-110582185D01*
X161859142Y-110629804D01*
X161906761Y-110677423D01*
X161954380Y-110772661D01*
X161954380Y-111010757D01*
X161906761Y-111105995D01*
X161859142Y-111153614D01*
G04 #@! TO.C,R1*
X152066633Y-97285980D02*
X151733300Y-96809790D01*
X151495204Y-97285980D02*
X151495204Y-96285980D01*
X151876157Y-96285980D01*
X151971395Y-96333600D01*
X152019014Y-96381219D01*
X152066633Y-96476457D01*
X152066633Y-96619314D01*
X152019014Y-96714552D01*
X151971395Y-96762171D01*
X151876157Y-96809790D01*
X151495204Y-96809790D01*
X153019014Y-97285980D02*
X152447585Y-97285980D01*
X152733300Y-97285980D02*
X152733300Y-96285980D01*
X152638061Y-96428838D01*
X152542823Y-96524076D01*
X152447585Y-96571695D01*
G04 #@! TO.C,R2*
X99488633Y-97895580D02*
X99155300Y-97419390D01*
X98917204Y-97895580D02*
X98917204Y-96895580D01*
X99298157Y-96895580D01*
X99393395Y-96943200D01*
X99441014Y-96990819D01*
X99488633Y-97086057D01*
X99488633Y-97228914D01*
X99441014Y-97324152D01*
X99393395Y-97371771D01*
X99298157Y-97419390D01*
X98917204Y-97419390D01*
X99869585Y-96990819D02*
X99917204Y-96943200D01*
X100012442Y-96895580D01*
X100250538Y-96895580D01*
X100345776Y-96943200D01*
X100393395Y-96990819D01*
X100441014Y-97086057D01*
X100441014Y-97181295D01*
X100393395Y-97324152D01*
X99821966Y-97895580D01*
X100441014Y-97895580D01*
G04 #@! TO.C,R3*
X99488633Y-102772380D02*
X99155300Y-102296190D01*
X98917204Y-102772380D02*
X98917204Y-101772380D01*
X99298157Y-101772380D01*
X99393395Y-101820000D01*
X99441014Y-101867619D01*
X99488633Y-101962857D01*
X99488633Y-102105714D01*
X99441014Y-102200952D01*
X99393395Y-102248571D01*
X99298157Y-102296190D01*
X98917204Y-102296190D01*
X99821966Y-101772380D02*
X100441014Y-101772380D01*
X100107680Y-102153333D01*
X100250538Y-102153333D01*
X100345776Y-102200952D01*
X100393395Y-102248571D01*
X100441014Y-102343809D01*
X100441014Y-102581904D01*
X100393395Y-102677142D01*
X100345776Y-102724761D01*
X100250538Y-102772380D01*
X99964823Y-102772380D01*
X99869585Y-102724761D01*
X99821966Y-102677142D01*
G04 #@! TO.C,R4*
X160270833Y-91172380D02*
X159937500Y-90696190D01*
X159699404Y-91172380D02*
X159699404Y-90172380D01*
X160080357Y-90172380D01*
X160175595Y-90220000D01*
X160223214Y-90267619D01*
X160270833Y-90362857D01*
X160270833Y-90505714D01*
X160223214Y-90600952D01*
X160175595Y-90648571D01*
X160080357Y-90696190D01*
X159699404Y-90696190D01*
X161127976Y-90505714D02*
X161127976Y-91172380D01*
X160889880Y-90124761D02*
X160651785Y-90839047D01*
X161270833Y-90839047D01*
G04 #@! TO.C,R5*
X156460833Y-87362380D02*
X156127500Y-86886190D01*
X155889404Y-87362380D02*
X155889404Y-86362380D01*
X156270357Y-86362380D01*
X156365595Y-86410000D01*
X156413214Y-86457619D01*
X156460833Y-86552857D01*
X156460833Y-86695714D01*
X156413214Y-86790952D01*
X156365595Y-86838571D01*
X156270357Y-86886190D01*
X155889404Y-86886190D01*
X157365595Y-86362380D02*
X156889404Y-86362380D01*
X156841785Y-86838571D01*
X156889404Y-86790952D01*
X156984642Y-86743333D01*
X157222738Y-86743333D01*
X157317976Y-86790952D01*
X157365595Y-86838571D01*
X157413214Y-86933809D01*
X157413214Y-87171904D01*
X157365595Y-87267142D01*
X157317976Y-87314761D01*
X157222738Y-87362380D01*
X156984642Y-87362380D01*
X156889404Y-87314761D01*
X156841785Y-87267142D01*
G04 #@! TO.C,R6*
X161769433Y-99605180D02*
X161436100Y-99128990D01*
X161198004Y-99605180D02*
X161198004Y-98605180D01*
X161578957Y-98605180D01*
X161674195Y-98652800D01*
X161721814Y-98700419D01*
X161769433Y-98795657D01*
X161769433Y-98938514D01*
X161721814Y-99033752D01*
X161674195Y-99081371D01*
X161578957Y-99128990D01*
X161198004Y-99128990D01*
X162626576Y-98605180D02*
X162436100Y-98605180D01*
X162340861Y-98652800D01*
X162293242Y-98700419D01*
X162198004Y-98843276D01*
X162150385Y-99033752D01*
X162150385Y-99414704D01*
X162198004Y-99509942D01*
X162245623Y-99557561D01*
X162340861Y-99605180D01*
X162531338Y-99605180D01*
X162626576Y-99557561D01*
X162674195Y-99509942D01*
X162721814Y-99414704D01*
X162721814Y-99176609D01*
X162674195Y-99081371D01*
X162626576Y-99033752D01*
X162531338Y-98986133D01*
X162340861Y-98986133D01*
X162245623Y-99033752D01*
X162198004Y-99081371D01*
X162150385Y-99176609D01*
G04 #@! TO.C,R7*
X161758333Y-96861980D02*
X161425000Y-96385790D01*
X161186904Y-96861980D02*
X161186904Y-95861980D01*
X161567857Y-95861980D01*
X161663095Y-95909600D01*
X161710714Y-95957219D01*
X161758333Y-96052457D01*
X161758333Y-96195314D01*
X161710714Y-96290552D01*
X161663095Y-96338171D01*
X161567857Y-96385790D01*
X161186904Y-96385790D01*
X162091666Y-95861980D02*
X162758333Y-95861980D01*
X162329761Y-96861980D01*
G04 #@! TO.C,R8*
X159853333Y-121499980D02*
X159520000Y-121023790D01*
X159281904Y-121499980D02*
X159281904Y-120499980D01*
X159662857Y-120499980D01*
X159758095Y-120547600D01*
X159805714Y-120595219D01*
X159853333Y-120690457D01*
X159853333Y-120833314D01*
X159805714Y-120928552D01*
X159758095Y-120976171D01*
X159662857Y-121023790D01*
X159281904Y-121023790D01*
X160424761Y-120928552D02*
X160329523Y-120880933D01*
X160281904Y-120833314D01*
X160234285Y-120738076D01*
X160234285Y-120690457D01*
X160281904Y-120595219D01*
X160329523Y-120547600D01*
X160424761Y-120499980D01*
X160615238Y-120499980D01*
X160710476Y-120547600D01*
X160758095Y-120595219D01*
X160805714Y-120690457D01*
X160805714Y-120738076D01*
X160758095Y-120833314D01*
X160710476Y-120880933D01*
X160615238Y-120928552D01*
X160424761Y-120928552D01*
X160329523Y-120976171D01*
X160281904Y-121023790D01*
X160234285Y-121119028D01*
X160234285Y-121309504D01*
X160281904Y-121404742D01*
X160329523Y-121452361D01*
X160424761Y-121499980D01*
X160615238Y-121499980D01*
X160710476Y-121452361D01*
X160758095Y-121404742D01*
X160805714Y-121309504D01*
X160805714Y-121119028D01*
X160758095Y-121023790D01*
X160710476Y-120976171D01*
X160615238Y-120928552D01*
G04 #@! TO.C,R9*
X159839033Y-125411580D02*
X159505700Y-124935390D01*
X159267604Y-125411580D02*
X159267604Y-124411580D01*
X159648557Y-124411580D01*
X159743795Y-124459200D01*
X159791414Y-124506819D01*
X159839033Y-124602057D01*
X159839033Y-124744914D01*
X159791414Y-124840152D01*
X159743795Y-124887771D01*
X159648557Y-124935390D01*
X159267604Y-124935390D01*
X160315223Y-125411580D02*
X160505700Y-125411580D01*
X160600938Y-125363961D01*
X160648557Y-125316342D01*
X160743795Y-125173485D01*
X160791414Y-124983009D01*
X160791414Y-124602057D01*
X160743795Y-124506819D01*
X160696176Y-124459200D01*
X160600938Y-124411580D01*
X160410461Y-124411580D01*
X160315223Y-124459200D01*
X160267604Y-124506819D01*
X160219985Y-124602057D01*
X160219985Y-124840152D01*
X160267604Y-124935390D01*
X160315223Y-124983009D01*
X160410461Y-125030628D01*
X160600938Y-125030628D01*
X160696176Y-124983009D01*
X160743795Y-124935390D01*
X160791414Y-124840152D01*
G04 #@! TO.C,R10*
X156365642Y-128967580D02*
X156032309Y-128491390D01*
X155794214Y-128967580D02*
X155794214Y-127967580D01*
X156175166Y-127967580D01*
X156270404Y-128015200D01*
X156318023Y-128062819D01*
X156365642Y-128158057D01*
X156365642Y-128300914D01*
X156318023Y-128396152D01*
X156270404Y-128443771D01*
X156175166Y-128491390D01*
X155794214Y-128491390D01*
X157318023Y-128967580D02*
X156746595Y-128967580D01*
X157032309Y-128967580D02*
X157032309Y-127967580D01*
X156937071Y-128110438D01*
X156841833Y-128205676D01*
X156746595Y-128253295D01*
X157937071Y-127967580D02*
X158032309Y-127967580D01*
X158127547Y-128015200D01*
X158175166Y-128062819D01*
X158222785Y-128158057D01*
X158270404Y-128348533D01*
X158270404Y-128586628D01*
X158222785Y-128777104D01*
X158175166Y-128872342D01*
X158127547Y-128919961D01*
X158032309Y-128967580D01*
X157937071Y-128967580D01*
X157841833Y-128919961D01*
X157794214Y-128872342D01*
X157746595Y-128777104D01*
X157698976Y-128586628D01*
X157698976Y-128348533D01*
X157746595Y-128158057D01*
X157794214Y-128062819D01*
X157841833Y-128015200D01*
X157937071Y-127967580D01*
G04 #@! TO.C,R11*
X156365642Y-132421980D02*
X156032309Y-131945790D01*
X155794214Y-132421980D02*
X155794214Y-131421980D01*
X156175166Y-131421980D01*
X156270404Y-131469600D01*
X156318023Y-131517219D01*
X156365642Y-131612457D01*
X156365642Y-131755314D01*
X156318023Y-131850552D01*
X156270404Y-131898171D01*
X156175166Y-131945790D01*
X155794214Y-131945790D01*
X157318023Y-132421980D02*
X156746595Y-132421980D01*
X157032309Y-132421980D02*
X157032309Y-131421980D01*
X156937071Y-131564838D01*
X156841833Y-131660076D01*
X156746595Y-131707695D01*
X158270404Y-132421980D02*
X157698976Y-132421980D01*
X157984690Y-132421980D02*
X157984690Y-131421980D01*
X157889452Y-131564838D01*
X157794214Y-131660076D01*
X157698976Y-131707695D01*
G04 #@! TO.C,R12*
X99063242Y-107852380D02*
X98729909Y-107376190D01*
X98491814Y-107852380D02*
X98491814Y-106852380D01*
X98872766Y-106852380D01*
X98968004Y-106900000D01*
X99015623Y-106947619D01*
X99063242Y-107042857D01*
X99063242Y-107185714D01*
X99015623Y-107280952D01*
X98968004Y-107328571D01*
X98872766Y-107376190D01*
X98491814Y-107376190D01*
X100015623Y-107852380D02*
X99444195Y-107852380D01*
X99729909Y-107852380D02*
X99729909Y-106852380D01*
X99634671Y-106995238D01*
X99539433Y-107090476D01*
X99444195Y-107138095D01*
X100396576Y-106947619D02*
X100444195Y-106900000D01*
X100539433Y-106852380D01*
X100777528Y-106852380D01*
X100872766Y-106900000D01*
X100920385Y-106947619D01*
X100968004Y-107042857D01*
X100968004Y-107138095D01*
X100920385Y-107280952D01*
X100348957Y-107852380D01*
X100968004Y-107852380D01*
G04 #@! TO.C,R13*
X99114042Y-113389580D02*
X98780709Y-112913390D01*
X98542614Y-113389580D02*
X98542614Y-112389580D01*
X98923566Y-112389580D01*
X99018804Y-112437200D01*
X99066423Y-112484819D01*
X99114042Y-112580057D01*
X99114042Y-112722914D01*
X99066423Y-112818152D01*
X99018804Y-112865771D01*
X98923566Y-112913390D01*
X98542614Y-112913390D01*
X100066423Y-113389580D02*
X99494995Y-113389580D01*
X99780709Y-113389580D02*
X99780709Y-112389580D01*
X99685471Y-112532438D01*
X99590233Y-112627676D01*
X99494995Y-112675295D01*
X100399757Y-112389580D02*
X101018804Y-112389580D01*
X100685471Y-112770533D01*
X100828328Y-112770533D01*
X100923566Y-112818152D01*
X100971185Y-112865771D01*
X101018804Y-112961009D01*
X101018804Y-113199104D01*
X100971185Y-113294342D01*
X100923566Y-113341961D01*
X100828328Y-113389580D01*
X100542614Y-113389580D01*
X100447376Y-113341961D01*
X100399757Y-113294342D01*
G04 #@! TO.C,U1*
X145542095Y-95202380D02*
X145542095Y-96011904D01*
X145589714Y-96107142D01*
X145637333Y-96154761D01*
X145732571Y-96202380D01*
X145923047Y-96202380D01*
X146018285Y-96154761D01*
X146065904Y-96107142D01*
X146113523Y-96011904D01*
X146113523Y-95202380D01*
X147113523Y-96202380D02*
X146542095Y-96202380D01*
X146827809Y-96202380D02*
X146827809Y-95202380D01*
X146732571Y-95345238D01*
X146637333Y-95440476D01*
X146542095Y-95488095D01*
G04 #@! TO.C,U2*
X149525695Y-108734380D02*
X149525695Y-109543904D01*
X149573314Y-109639142D01*
X149620933Y-109686761D01*
X149716171Y-109734380D01*
X149906647Y-109734380D01*
X150001885Y-109686761D01*
X150049504Y-109639142D01*
X150097123Y-109543904D01*
X150097123Y-108734380D01*
X150525695Y-108829619D02*
X150573314Y-108782000D01*
X150668552Y-108734380D01*
X150906647Y-108734380D01*
X151001885Y-108782000D01*
X151049504Y-108829619D01*
X151097123Y-108924857D01*
X151097123Y-109020095D01*
X151049504Y-109162952D01*
X150478076Y-109734380D01*
X151097123Y-109734380D01*
G04 #@! TO.C,U3*
X133400895Y-140820780D02*
X133400895Y-141630304D01*
X133448514Y-141725542D01*
X133496133Y-141773161D01*
X133591371Y-141820780D01*
X133781847Y-141820780D01*
X133877085Y-141773161D01*
X133924704Y-141725542D01*
X133972323Y-141630304D01*
X133972323Y-140820780D01*
X134353276Y-140820780D02*
X134972323Y-140820780D01*
X134638990Y-141201733D01*
X134781847Y-141201733D01*
X134877085Y-141249352D01*
X134924704Y-141296971D01*
X134972323Y-141392209D01*
X134972323Y-141630304D01*
X134924704Y-141725542D01*
X134877085Y-141773161D01*
X134781847Y-141820780D01*
X134496133Y-141820780D01*
X134400895Y-141773161D01*
X134353276Y-141725542D01*
G04 #@! TO.C,U4*
X166522495Y-108207180D02*
X166522495Y-109016704D01*
X166570114Y-109111942D01*
X166617733Y-109159561D01*
X166712971Y-109207180D01*
X166903447Y-109207180D01*
X166998685Y-109159561D01*
X167046304Y-109111942D01*
X167093923Y-109016704D01*
X167093923Y-108207180D01*
X167998685Y-108540514D02*
X167998685Y-109207180D01*
X167760590Y-108159561D02*
X167522495Y-108873847D01*
X168141542Y-108873847D01*
G04 #@! TO.C,U5*
X134032380Y-135761904D02*
X134841904Y-135761904D01*
X134937142Y-135714285D01*
X134984761Y-135666666D01*
X135032380Y-135571428D01*
X135032380Y-135380952D01*
X134984761Y-135285714D01*
X134937142Y-135238095D01*
X134841904Y-135190476D01*
X134032380Y-135190476D01*
X134032380Y-134238095D02*
X134032380Y-134714285D01*
X134508571Y-134761904D01*
X134460952Y-134714285D01*
X134413333Y-134619047D01*
X134413333Y-134380952D01*
X134460952Y-134285714D01*
X134508571Y-134238095D01*
X134603809Y-134190476D01*
X134841904Y-134190476D01*
X134937142Y-134238095D01*
X134984761Y-134285714D01*
X135032380Y-134380952D01*
X135032380Y-134619047D01*
X134984761Y-134714285D01*
X134937142Y-134761904D01*
G04 #@! TO.C,U6*
X140004895Y-91662380D02*
X140004895Y-92471904D01*
X140052514Y-92567142D01*
X140100133Y-92614761D01*
X140195371Y-92662380D01*
X140385847Y-92662380D01*
X140481085Y-92614761D01*
X140528704Y-92567142D01*
X140576323Y-92471904D01*
X140576323Y-91662380D01*
X141481085Y-91662380D02*
X141290609Y-91662380D01*
X141195371Y-91710000D01*
X141147752Y-91757619D01*
X141052514Y-91900476D01*
X141004895Y-92090952D01*
X141004895Y-92471904D01*
X141052514Y-92567142D01*
X141100133Y-92614761D01*
X141195371Y-92662380D01*
X141385847Y-92662380D01*
X141481085Y-92614761D01*
X141528704Y-92567142D01*
X141576323Y-92471904D01*
X141576323Y-92233809D01*
X141528704Y-92138571D01*
X141481085Y-92090952D01*
X141385847Y-92043333D01*
X141195371Y-92043333D01*
X141100133Y-92090952D01*
X141052514Y-92138571D01*
X141004895Y-92233809D01*
G04 #@! TO.C,U7*
X85238095Y-104952380D02*
X85238095Y-105761904D01*
X85285714Y-105857142D01*
X85333333Y-105904761D01*
X85428571Y-105952380D01*
X85619047Y-105952380D01*
X85714285Y-105904761D01*
X85761904Y-105857142D01*
X85809523Y-105761904D01*
X85809523Y-104952380D01*
X86190476Y-104952380D02*
X86857142Y-104952380D01*
X86428571Y-105952380D01*
G04 #@! TO.C,U8*
X107660286Y-66206361D02*
X106959218Y-66611123D01*
X106900549Y-66699981D01*
X106883119Y-66765030D01*
X106889499Y-66871318D01*
X106984737Y-67036276D01*
X107073595Y-67094945D01*
X107138644Y-67112374D01*
X107244932Y-67105995D01*
X107946000Y-66701233D01*
X107884370Y-67451629D02*
X107877991Y-67345341D01*
X107895421Y-67280292D01*
X107954090Y-67191434D01*
X107995329Y-67167625D01*
X108101617Y-67161245D01*
X108166666Y-67178675D01*
X108255524Y-67237344D01*
X108350762Y-67402301D01*
X108357142Y-67508589D01*
X108339712Y-67573638D01*
X108281043Y-67662496D01*
X108239804Y-67686306D01*
X108133516Y-67692686D01*
X108068467Y-67675256D01*
X107979609Y-67616587D01*
X107884370Y-67451629D01*
X107795512Y-67392960D01*
X107730463Y-67375531D01*
X107624175Y-67381910D01*
X107459218Y-67477148D01*
X107400549Y-67566007D01*
X107383119Y-67631056D01*
X107389499Y-67737344D01*
X107484737Y-67902301D01*
X107573595Y-67960970D01*
X107638644Y-67978400D01*
X107744932Y-67972020D01*
X107909889Y-67876782D01*
X107968559Y-67787924D01*
X107985988Y-67722875D01*
X107979609Y-67616587D01*
G04 #@! TO.C,U9*
X150711782Y-67026019D02*
X151412850Y-67430781D01*
X151519138Y-67437161D01*
X151584187Y-67419731D01*
X151673046Y-67361062D01*
X151768284Y-67196104D01*
X151774663Y-67089816D01*
X151757234Y-67024767D01*
X151698565Y-66935909D01*
X150997496Y-66531147D01*
X152125427Y-66577515D02*
X152220665Y-66412558D01*
X152227044Y-66306269D01*
X152209615Y-66241221D01*
X152133516Y-66087313D01*
X151992368Y-65950836D01*
X151662454Y-65760360D01*
X151556165Y-65753980D01*
X151491117Y-65771410D01*
X151402258Y-65830079D01*
X151307020Y-65995036D01*
X151300640Y-66101324D01*
X151318070Y-66166373D01*
X151376739Y-66255232D01*
X151582936Y-66374279D01*
X151689224Y-66380659D01*
X151754273Y-66363229D01*
X151843131Y-66304560D01*
X151938369Y-66139603D01*
X151944749Y-66033315D01*
X151927319Y-65968266D01*
X151868650Y-65879408D01*
G04 #@! TO.C,U10*
X172761904Y-103952380D02*
X172761904Y-104761904D01*
X172809523Y-104857142D01*
X172857142Y-104904761D01*
X172952380Y-104952380D01*
X173142857Y-104952380D01*
X173238095Y-104904761D01*
X173285714Y-104857142D01*
X173333333Y-104761904D01*
X173333333Y-103952380D01*
X174333333Y-104952380D02*
X173761904Y-104952380D01*
X174047619Y-104952380D02*
X174047619Y-103952380D01*
X173952380Y-104095238D01*
X173857142Y-104190476D01*
X173761904Y-104238095D01*
X174952380Y-103952380D02*
X175047619Y-103952380D01*
X175142857Y-104000000D01*
X175190476Y-104047619D01*
X175238095Y-104142857D01*
X175285714Y-104333333D01*
X175285714Y-104571428D01*
X175238095Y-104761904D01*
X175190476Y-104857142D01*
X175142857Y-104904761D01*
X175047619Y-104952380D01*
X174952380Y-104952380D01*
X174857142Y-104904761D01*
X174809523Y-104857142D01*
X174761904Y-104761904D01*
X174714285Y-104571428D01*
X174714285Y-104333333D01*
X174761904Y-104142857D01*
X174809523Y-104047619D01*
X174857142Y-104000000D01*
X174952380Y-103952380D01*
G04 #@! TO.C,U11*
X152288217Y-141513968D02*
X151587149Y-141918730D01*
X151528480Y-142007588D01*
X151511050Y-142072637D01*
X151517430Y-142178925D01*
X151612668Y-142343882D01*
X151701526Y-142402552D01*
X151766575Y-142419981D01*
X151872863Y-142413602D01*
X152573931Y-142008840D01*
X152207906Y-143374865D02*
X151922191Y-142879993D01*
X152065049Y-143127429D02*
X152931074Y-142627429D01*
X152759737Y-142616379D01*
X152629639Y-142581520D01*
X152540781Y-142522851D01*
X152684096Y-144199651D02*
X152398382Y-143704780D01*
X152541239Y-143952215D02*
X153407265Y-143452215D01*
X153235928Y-143441165D01*
X153105830Y-143406306D01*
X153016972Y-143347637D01*
G04 #@! TO.C,U12*
X107339713Y-144158412D02*
X108040781Y-144563174D01*
X108147069Y-144569554D01*
X108212118Y-144552124D01*
X108300976Y-144493455D01*
X108396214Y-144328497D01*
X108402594Y-144222209D01*
X108385164Y-144157161D01*
X108326495Y-144068302D01*
X107625427Y-143663540D01*
X108991453Y-143297515D02*
X108705738Y-143792387D01*
X108848595Y-143544951D02*
X107982570Y-143044951D01*
X108058669Y-143198858D01*
X108093528Y-143328956D01*
X108087149Y-143435244D01*
X108398382Y-142515219D02*
X108380952Y-142450171D01*
X108387332Y-142343882D01*
X108506380Y-142137686D01*
X108595238Y-142079017D01*
X108660287Y-142061587D01*
X108766575Y-142067967D01*
X108849053Y-142115586D01*
X108948962Y-142228254D01*
X109158119Y-143008840D01*
X109467643Y-142472729D01*
G04 #@! TO.C,U13*
X85632631Y-96113303D02*
X85492058Y-96910528D01*
X85522416Y-97012589D01*
X85561043Y-97067753D01*
X85646565Y-97131187D01*
X85834147Y-97164262D01*
X85936208Y-97133905D01*
X85991372Y-97095278D01*
X86054806Y-97009756D01*
X86195378Y-96212531D01*
X87006538Y-97370986D02*
X86443790Y-97271759D01*
X86725164Y-97321373D02*
X86898812Y-96336565D01*
X86780214Y-96460714D01*
X86669885Y-96537967D01*
X86567825Y-96568325D01*
X87508455Y-96444061D02*
X88118098Y-96551558D01*
X87723677Y-96868840D01*
X87864364Y-96893647D01*
X87949886Y-96957081D01*
X87988513Y-97012245D01*
X88018870Y-97114305D01*
X87977526Y-97348783D01*
X87914092Y-97434306D01*
X87858928Y-97472932D01*
X87756867Y-97503290D01*
X87475494Y-97453676D01*
X87389971Y-97390243D01*
X87351345Y-97335078D01*
G04 #@! TO.C,U14*
X115510986Y-62128264D02*
X114750282Y-62405137D01*
X114677074Y-62482458D01*
X114648614Y-62543492D01*
X114636440Y-62649273D01*
X114701586Y-62828262D01*
X114778907Y-62901470D01*
X114839941Y-62929931D01*
X114945722Y-62942104D01*
X115706426Y-62665231D01*
X115108753Y-63946944D02*
X114913313Y-63409977D01*
X115011033Y-63678460D02*
X115950726Y-63336440D01*
X115783911Y-63295806D01*
X115661843Y-63238884D01*
X115584522Y-63165676D01*
X116028375Y-64524381D02*
X115401913Y-64752395D01*
X116304920Y-64170351D02*
X115552277Y-64190915D01*
X115764004Y-64772630D01*
G04 #@! TO.C,U15*
X157447689Y-72207827D02*
X158067820Y-72728179D01*
X158171385Y-72752918D01*
X158238473Y-72747049D01*
X158336169Y-72704701D01*
X158458605Y-72558788D01*
X158483344Y-72455222D01*
X158477475Y-72388135D01*
X158435127Y-72290439D01*
X157814996Y-71770087D01*
X159223828Y-71646830D02*
X158856521Y-72084570D01*
X159040174Y-71865700D02*
X158274130Y-71222912D01*
X158322347Y-71387696D01*
X158334086Y-71521870D01*
X158309346Y-71625436D01*
X159039353Y-70310955D02*
X158733264Y-70675738D01*
X159067438Y-71018305D01*
X159061569Y-70951218D01*
X159086308Y-70847653D01*
X159239353Y-70665261D01*
X159337049Y-70622913D01*
X159404136Y-70617044D01*
X159507702Y-70641784D01*
X159690093Y-70794828D01*
X159732441Y-70892525D01*
X159738310Y-70959612D01*
X159713571Y-71063177D01*
X159560526Y-71245569D01*
X159462830Y-71287917D01*
X159395743Y-71293786D01*
G04 #@! TO.C,U16*
X172118983Y-112378111D02*
X171978410Y-113175336D01*
X172008768Y-113277397D01*
X172047395Y-113332561D01*
X172132917Y-113395995D01*
X172320499Y-113429070D01*
X172422560Y-113398713D01*
X172477724Y-113360086D01*
X172541158Y-113274564D01*
X172681730Y-112477339D01*
X173492890Y-113635794D02*
X172930142Y-113536567D01*
X173211516Y-113586181D02*
X173385164Y-112601373D01*
X173266566Y-112725522D01*
X173156237Y-112802775D01*
X173054177Y-112833133D01*
X174510659Y-112799828D02*
X174323076Y-112766752D01*
X174221016Y-112797110D01*
X174165852Y-112835737D01*
X174047253Y-112959885D01*
X173967282Y-113139199D01*
X173901130Y-113514364D01*
X173931488Y-113616424D01*
X173970115Y-113671588D01*
X174055637Y-113735022D01*
X174243219Y-113768098D01*
X174345280Y-113737740D01*
X174400444Y-113699114D01*
X174463878Y-113613591D01*
X174505222Y-113379113D01*
X174474865Y-113277053D01*
X174436238Y-113221889D01*
X174350716Y-113158455D01*
X174163133Y-113125379D01*
X174061073Y-113155737D01*
X174005909Y-113194363D01*
X173942475Y-113279886D01*
G04 #@! TO.C,U17*
X144671294Y-145170284D02*
X143910590Y-145447157D01*
X143837382Y-145524478D01*
X143808922Y-145585512D01*
X143796748Y-145691293D01*
X143861894Y-145870282D01*
X143939215Y-145943490D01*
X144000249Y-145971951D01*
X144106030Y-145984124D01*
X144866734Y-145707251D01*
X144269061Y-146988964D02*
X144073621Y-146451997D01*
X144171341Y-146720480D02*
X145111034Y-146378460D01*
X144944219Y-146337826D01*
X144822151Y-146280904D01*
X144744830Y-146207696D01*
X145322761Y-146960175D02*
X145550774Y-147586636D01*
X144464501Y-147525931D01*
G04 #@! TO.C,U18*
X100121645Y-138985039D02*
X100741776Y-139505391D01*
X100845341Y-139530130D01*
X100912429Y-139524261D01*
X101010125Y-139481913D01*
X101132561Y-139336000D01*
X101157300Y-139232434D01*
X101151431Y-139165347D01*
X101109083Y-139067651D01*
X100488952Y-138547299D01*
X101897784Y-138424042D02*
X101530477Y-138861782D01*
X101714130Y-138642912D02*
X100948086Y-138000124D01*
X100996303Y-138164908D01*
X101008042Y-138299082D01*
X100983302Y-138402648D01*
X101827351Y-137618995D02*
X101729655Y-137661343D01*
X101662568Y-137667212D01*
X101559003Y-137642473D01*
X101522524Y-137611864D01*
X101480177Y-137514168D01*
X101474307Y-137447080D01*
X101499047Y-137343515D01*
X101621482Y-137197602D01*
X101719179Y-137155254D01*
X101786266Y-137149385D01*
X101889831Y-137174124D01*
X101926310Y-137204733D01*
X101968657Y-137302429D01*
X101974527Y-137369517D01*
X101949787Y-137473082D01*
X101827351Y-137618995D01*
X101802612Y-137722561D01*
X101808481Y-137789648D01*
X101850829Y-137887344D01*
X101996742Y-138009780D01*
X102100308Y-138034520D01*
X102167395Y-138028650D01*
X102265091Y-137986303D01*
X102387527Y-137840389D01*
X102412266Y-137736824D01*
X102406397Y-137669737D01*
X102364049Y-137572040D01*
X102218136Y-137449605D01*
X102114571Y-137424865D01*
X102047483Y-137430734D01*
X101949787Y-137473082D01*
G04 #@! TO.C,U19*
X87502857Y-89481798D02*
X87225984Y-90242502D01*
X87238158Y-90348283D01*
X87266618Y-90409317D01*
X87339826Y-90486638D01*
X87518815Y-90551784D01*
X87624596Y-90539610D01*
X87685630Y-90511150D01*
X87762951Y-90437942D01*
X88039824Y-89677238D01*
X88637497Y-90958951D02*
X88100530Y-90763511D01*
X88369013Y-90861231D02*
X88711034Y-89921539D01*
X88572679Y-90023207D01*
X88450611Y-90080128D01*
X88344830Y-90092302D01*
X89084970Y-91121818D02*
X89263959Y-91186965D01*
X89369740Y-91174791D01*
X89430774Y-91146330D01*
X89569128Y-91044662D01*
X89679022Y-90881959D01*
X89809316Y-90523981D01*
X89797142Y-90418200D01*
X89768681Y-90357166D01*
X89695473Y-90279845D01*
X89516484Y-90214699D01*
X89410703Y-90226873D01*
X89349669Y-90255333D01*
X89272349Y-90328541D01*
X89190915Y-90552277D01*
X89203089Y-90658059D01*
X89231550Y-90719093D01*
X89304758Y-90796413D01*
X89483747Y-90861560D01*
X89589528Y-90849386D01*
X89650562Y-90820925D01*
X89727882Y-90747718D01*
G04 #@! TO.C,U20*
X122191902Y-60422445D02*
X121394677Y-60563017D01*
X121309154Y-60626451D01*
X121270528Y-60681615D01*
X121240170Y-60783675D01*
X121273246Y-60971258D01*
X121336679Y-61056780D01*
X121391844Y-61095407D01*
X121493904Y-61125764D01*
X122291130Y-60985192D01*
X122271759Y-61423790D02*
X122326924Y-61462417D01*
X122390357Y-61547939D01*
X122431702Y-61782417D01*
X122401344Y-61884477D01*
X122362718Y-61939642D01*
X122277195Y-62003076D01*
X122183404Y-62019613D01*
X122034448Y-61997525D01*
X121372473Y-61534005D01*
X121479970Y-62143648D01*
X122572274Y-62579643D02*
X122588812Y-62673434D01*
X122558454Y-62775494D01*
X122519828Y-62830659D01*
X122434306Y-62894092D01*
X122254992Y-62974064D01*
X122020514Y-63015408D01*
X121824663Y-63001589D01*
X121722602Y-62971231D01*
X121667438Y-62932604D01*
X121604004Y-62847082D01*
X121587466Y-62753291D01*
X121617824Y-62651231D01*
X121656451Y-62596066D01*
X121741973Y-62532633D01*
X121921287Y-62452661D01*
X122155765Y-62411316D01*
X122351616Y-62425136D01*
X122453676Y-62455494D01*
X122508841Y-62494120D01*
X122572274Y-62579643D01*
G04 #@! TO.C,U21*
X162088167Y-76713309D02*
X162608519Y-77333440D01*
X162706215Y-77375788D01*
X162773302Y-77381658D01*
X162876868Y-77356918D01*
X163022781Y-77234482D01*
X163065129Y-77136786D01*
X163070998Y-77069699D01*
X163046258Y-76966133D01*
X162525906Y-76346002D01*
X162915429Y-76143478D02*
X162921298Y-76076391D01*
X162963646Y-75978695D01*
X163146038Y-75825650D01*
X163249603Y-75800911D01*
X163316690Y-75806780D01*
X163414387Y-75849128D01*
X163475605Y-75922084D01*
X163530953Y-76062128D01*
X163460521Y-76867175D01*
X163934739Y-76469259D01*
X164664305Y-75857080D02*
X164226565Y-76224387D01*
X164445435Y-76040734D02*
X163802647Y-75274689D01*
X163821517Y-75445342D01*
X163809779Y-75579517D01*
X163767431Y-75677213D01*
G04 #@! TO.C,U22*
X170544877Y-118642106D02*
X170268004Y-119402810D01*
X170280178Y-119508591D01*
X170308638Y-119569625D01*
X170381846Y-119646946D01*
X170560835Y-119712092D01*
X170666616Y-119699918D01*
X170727650Y-119671458D01*
X170804971Y-119598250D01*
X171081844Y-118837546D01*
X171451997Y-119073621D02*
X171513031Y-119045160D01*
X171618812Y-119032987D01*
X171842548Y-119114420D01*
X171915756Y-119191741D01*
X171944217Y-119252774D01*
X171956390Y-119358556D01*
X171923817Y-119448050D01*
X171830210Y-119566005D01*
X171097802Y-119907533D01*
X171679517Y-120119259D01*
X172346942Y-119399355D02*
X172407976Y-119370894D01*
X172513757Y-119358720D01*
X172737493Y-119440153D01*
X172810701Y-119517474D01*
X172839162Y-119578508D01*
X172851336Y-119684289D01*
X172818762Y-119773784D01*
X172725155Y-119891739D01*
X171992748Y-120233266D01*
X172574462Y-120444993D01*
G04 #@! TO.C,U23*
X138456710Y-146928797D02*
X137659485Y-147069369D01*
X137573962Y-147132803D01*
X137535336Y-147187967D01*
X137504978Y-147290027D01*
X137538054Y-147477610D01*
X137601487Y-147563132D01*
X137656652Y-147601759D01*
X137758712Y-147632116D01*
X138555938Y-147491544D01*
X138536567Y-147930142D02*
X138591732Y-147968769D01*
X138655165Y-148054291D01*
X138696510Y-148288769D01*
X138666152Y-148390829D01*
X138627526Y-148445994D01*
X138542003Y-148509428D01*
X138448212Y-148525965D01*
X138299256Y-148503877D01*
X137637281Y-148040357D01*
X137744778Y-148650000D01*
X138787468Y-148804621D02*
X138894965Y-149414264D01*
X138461917Y-149152146D01*
X138486724Y-149292833D01*
X138456367Y-149394893D01*
X138417740Y-149450058D01*
X138332218Y-149513491D01*
X138097740Y-149554836D01*
X137995679Y-149524478D01*
X137940515Y-149485852D01*
X137877081Y-149400330D01*
X137827468Y-149118956D01*
X137857825Y-149016896D01*
X137896452Y-148961731D01*
G04 #@! TO.C,U24*
X95310955Y-134039353D02*
X95831307Y-134659484D01*
X95929003Y-134701832D01*
X95996090Y-134707702D01*
X96099656Y-134682962D01*
X96245569Y-134560526D01*
X96287917Y-134462830D01*
X96293786Y-134395743D01*
X96269046Y-134292177D01*
X95748694Y-133672046D01*
X96138217Y-133469522D02*
X96144086Y-133402435D01*
X96186434Y-133304739D01*
X96368826Y-133151694D01*
X96472391Y-133126955D01*
X96539478Y-133132824D01*
X96637175Y-133175172D01*
X96698393Y-133248128D01*
X96753741Y-133388172D01*
X96683309Y-134193219D01*
X97157527Y-133795303D01*
X97385611Y-132733646D02*
X97814136Y-133244342D01*
X96958348Y-132594864D02*
X97235090Y-133295083D01*
X97709308Y-132897167D01*
G04 #@! TO.C,U25*
X91341587Y-81473687D02*
X90936825Y-82174755D01*
X90930445Y-82281043D01*
X90947875Y-82346092D01*
X91006544Y-82434950D01*
X91171502Y-82530188D01*
X91277790Y-82536568D01*
X91342838Y-82519138D01*
X91431697Y-82460469D01*
X91836459Y-81759401D01*
X92159993Y-82056165D02*
X92225042Y-82038736D01*
X92331330Y-82045115D01*
X92537527Y-82164163D01*
X92596196Y-82253021D01*
X92613626Y-82318070D01*
X92607246Y-82424358D01*
X92559627Y-82506837D01*
X92446959Y-82606745D01*
X91666373Y-82815903D01*
X92202484Y-83125427D01*
X93486031Y-82711782D02*
X93073638Y-82473687D01*
X92794303Y-82862270D01*
X92859352Y-82844841D01*
X92965640Y-82851220D01*
X93171837Y-82970268D01*
X93230506Y-83059126D01*
X93247936Y-83124175D01*
X93241556Y-83230463D01*
X93122508Y-83436660D01*
X93033650Y-83495329D01*
X92968601Y-83512759D01*
X92862313Y-83506379D01*
X92656117Y-83387331D01*
X92597447Y-83298473D01*
X92580018Y-83233424D01*
G04 #@! TO.C,U26*
X129952380Y-62238095D02*
X130761904Y-62238095D01*
X130857142Y-62190476D01*
X130904761Y-62142857D01*
X130952380Y-62047619D01*
X130952380Y-61857142D01*
X130904761Y-61761904D01*
X130857142Y-61714285D01*
X130761904Y-61666666D01*
X129952380Y-61666666D01*
X130047619Y-61238095D02*
X130000000Y-61190476D01*
X129952380Y-61095238D01*
X129952380Y-60857142D01*
X130000000Y-60761904D01*
X130047619Y-60714285D01*
X130142857Y-60666666D01*
X130238095Y-60666666D01*
X130380952Y-60714285D01*
X130952380Y-61285714D01*
X130952380Y-60666666D01*
X129952380Y-59809523D02*
X129952380Y-60000000D01*
X130000000Y-60095238D01*
X130047619Y-60142857D01*
X130190476Y-60238095D01*
X130380952Y-60285714D01*
X130761904Y-60285714D01*
X130857142Y-60238095D01*
X130904761Y-60190476D01*
X130952380Y-60095238D01*
X130952380Y-59904761D01*
X130904761Y-59809523D01*
X130857142Y-59761904D01*
X130761904Y-59714285D01*
X130523809Y-59714285D01*
X130428571Y-59761904D01*
X130380952Y-59809523D01*
X130333333Y-59904761D01*
X130333333Y-60095238D01*
X130380952Y-60190476D01*
X130428571Y-60238095D01*
X130523809Y-60285714D01*
G04 #@! TO.C,U27*
X167013968Y-83577808D02*
X167418730Y-84278876D01*
X167507588Y-84337545D01*
X167572637Y-84354975D01*
X167678925Y-84348595D01*
X167843882Y-84253357D01*
X167902552Y-84164499D01*
X167919981Y-84099450D01*
X167913602Y-83993162D01*
X167508840Y-83292094D01*
X167927612Y-83160287D02*
X167945042Y-83095238D01*
X168003711Y-83006380D01*
X168209908Y-82887332D01*
X168316196Y-82880952D01*
X168381245Y-82898382D01*
X168470103Y-82957051D01*
X168517722Y-83039530D01*
X168547912Y-83187057D01*
X168338754Y-83967643D01*
X168874865Y-83658119D01*
X168663540Y-82625427D02*
X169240891Y-82292094D01*
X169369737Y-83372405D01*
G04 #@! TO.C,U28*
X167061587Y-126339713D02*
X166656825Y-127040781D01*
X166650445Y-127147069D01*
X166667875Y-127212118D01*
X166726544Y-127300976D01*
X166891502Y-127396214D01*
X166997790Y-127402594D01*
X167062838Y-127385164D01*
X167151697Y-127326495D01*
X167556459Y-126625427D01*
X167879993Y-126922191D02*
X167945042Y-126904762D01*
X168051330Y-126911141D01*
X168257527Y-127030189D01*
X168316196Y-127119047D01*
X168333626Y-127184096D01*
X168327246Y-127290384D01*
X168279627Y-127372863D01*
X168166959Y-127472771D01*
X167386373Y-127681929D01*
X167922484Y-127991453D01*
X168703070Y-127782295D02*
X168644401Y-127693437D01*
X168626971Y-127628388D01*
X168633351Y-127522100D01*
X168657161Y-127480861D01*
X168746019Y-127422191D01*
X168811068Y-127404762D01*
X168917356Y-127411141D01*
X169082313Y-127506380D01*
X169140982Y-127595238D01*
X169158412Y-127660287D01*
X169152032Y-127766575D01*
X169128223Y-127807814D01*
X169039364Y-127866483D01*
X168974315Y-127883913D01*
X168868027Y-127877533D01*
X168703070Y-127782295D01*
X168596782Y-127775915D01*
X168531733Y-127793345D01*
X168442875Y-127852014D01*
X168347637Y-128016972D01*
X168341257Y-128123260D01*
X168358687Y-128188308D01*
X168417356Y-128277167D01*
X168582313Y-128372405D01*
X168688601Y-128378785D01*
X168753650Y-128361355D01*
X168842508Y-128302686D01*
X168937746Y-128137729D01*
X168944126Y-128031440D01*
X168926696Y-127966392D01*
X168868027Y-127877533D01*
G04 #@! TO.C,U29*
X128952380Y-150238095D02*
X129761904Y-150238095D01*
X129857142Y-150190476D01*
X129904761Y-150142857D01*
X129952380Y-150047619D01*
X129952380Y-149857142D01*
X129904761Y-149761904D01*
X129857142Y-149714285D01*
X129761904Y-149666666D01*
X128952380Y-149666666D01*
X129047619Y-149238095D02*
X129000000Y-149190476D01*
X128952380Y-149095238D01*
X128952380Y-148857142D01*
X129000000Y-148761904D01*
X129047619Y-148714285D01*
X129142857Y-148666666D01*
X129238095Y-148666666D01*
X129380952Y-148714285D01*
X129952380Y-149285714D01*
X129952380Y-148666666D01*
X129952380Y-148190476D02*
X129952380Y-148000000D01*
X129904761Y-147904761D01*
X129857142Y-147857142D01*
X129714285Y-147761904D01*
X129523809Y-147714285D01*
X129142857Y-147714285D01*
X129047619Y-147761904D01*
X129000000Y-147809523D01*
X128952380Y-147904761D01*
X128952380Y-148095238D01*
X129000000Y-148190476D01*
X129047619Y-148238095D01*
X129142857Y-148285714D01*
X129380952Y-148285714D01*
X129476190Y-148238095D01*
X129523809Y-148190476D01*
X129571428Y-148095238D01*
X129571428Y-147904761D01*
X129523809Y-147809523D01*
X129476190Y-147761904D01*
X129380952Y-147714285D01*
G04 #@! TO.C,U30*
X90293968Y-126711782D02*
X90698730Y-127412850D01*
X90787588Y-127471519D01*
X90852637Y-127488949D01*
X90958925Y-127482569D01*
X91123882Y-127387331D01*
X91182552Y-127298473D01*
X91199981Y-127233424D01*
X91193602Y-127127136D01*
X90788840Y-126426068D01*
X91118754Y-126235592D02*
X91654865Y-125926068D01*
X91556666Y-126422649D01*
X91680384Y-126351220D01*
X91786672Y-126344841D01*
X91851721Y-126362270D01*
X91940579Y-126420939D01*
X92059627Y-126627136D01*
X92066007Y-126733424D01*
X92048577Y-126798473D01*
X91989908Y-126887331D01*
X91742472Y-127030188D01*
X91636184Y-127036568D01*
X91571135Y-127019138D01*
X92190976Y-125616544D02*
X92273455Y-125568925D01*
X92379743Y-125562545D01*
X92444792Y-125579975D01*
X92533650Y-125638644D01*
X92670127Y-125779792D01*
X92789175Y-125985988D01*
X92843174Y-126174755D01*
X92849554Y-126281043D01*
X92832124Y-126346092D01*
X92773455Y-126434950D01*
X92690976Y-126482569D01*
X92584688Y-126488949D01*
X92519639Y-126471519D01*
X92430781Y-126412850D01*
X92294303Y-126271703D01*
X92175256Y-126065506D01*
X92121257Y-125876739D01*
X92114877Y-125770451D01*
X92132307Y-125705402D01*
X92190976Y-125616544D01*
G04 #@! TO.C,U31*
X95372172Y-75887689D02*
X94851820Y-76507820D01*
X94827081Y-76611385D01*
X94832950Y-76678473D01*
X94875298Y-76776169D01*
X95021211Y-76898605D01*
X95124777Y-76923344D01*
X95191864Y-76917475D01*
X95289560Y-76875127D01*
X95809912Y-76254996D01*
X96101738Y-76499867D02*
X96575956Y-76897784D01*
X96075737Y-76975347D01*
X96185172Y-77067174D01*
X96227519Y-77164870D01*
X96233389Y-77231958D01*
X96208649Y-77335523D01*
X96055605Y-77517915D01*
X95957908Y-77560262D01*
X95890821Y-77566132D01*
X95787256Y-77541392D01*
X95568386Y-77357739D01*
X95526038Y-77260042D01*
X95520169Y-77192955D01*
X96662735Y-78276007D02*
X96224995Y-77908699D01*
X96443865Y-78092353D02*
X97086653Y-77326309D01*
X96921869Y-77374526D01*
X96787695Y-77386264D01*
X96684129Y-77361525D01*
G04 #@! TO.C,U32*
X136393303Y-62687368D02*
X137190528Y-62827941D01*
X137292589Y-62797583D01*
X137347753Y-62758956D01*
X137411187Y-62673434D01*
X137444262Y-62485852D01*
X137413905Y-62383791D01*
X137375278Y-62328627D01*
X137289756Y-62265193D01*
X136492531Y-62124621D01*
X136558682Y-61749456D02*
X136666179Y-61139813D01*
X136983461Y-61534234D01*
X137008268Y-61393547D01*
X137071701Y-61308025D01*
X137126866Y-61269398D01*
X137228926Y-61239041D01*
X137463404Y-61280386D01*
X137548926Y-61343819D01*
X137587553Y-61398984D01*
X137617911Y-61501044D01*
X137568297Y-61782417D01*
X137504863Y-61867940D01*
X137449699Y-61906566D01*
X136826122Y-60781186D02*
X136787495Y-60726022D01*
X136757137Y-60623962D01*
X136798482Y-60389483D01*
X136861916Y-60303961D01*
X136917080Y-60265335D01*
X137019140Y-60234977D01*
X137112932Y-60251515D01*
X137245349Y-60323217D01*
X137708869Y-60985192D01*
X137816366Y-60375549D01*
G04 #@! TO.C,U33*
X169828264Y-89389013D02*
X170105137Y-90149717D01*
X170182458Y-90222925D01*
X170243492Y-90251385D01*
X170349273Y-90263559D01*
X170528262Y-90198413D01*
X170601470Y-90121092D01*
X170629931Y-90060058D01*
X170642104Y-89954277D01*
X170365231Y-89193573D01*
X170723209Y-89063280D02*
X171304924Y-88851553D01*
X171121986Y-89323538D01*
X171256228Y-89274678D01*
X171362009Y-89286852D01*
X171423043Y-89315313D01*
X171500364Y-89388520D01*
X171581797Y-89612257D01*
X171569623Y-89718038D01*
X171541163Y-89779072D01*
X171467955Y-89856393D01*
X171199471Y-89954113D01*
X171093690Y-89941939D01*
X171032656Y-89913478D01*
X171618155Y-88737546D02*
X172199869Y-88525820D01*
X172016931Y-88997805D01*
X172151173Y-88948945D01*
X172256955Y-88961118D01*
X172317988Y-88989579D01*
X172395309Y-89062787D01*
X172476742Y-89286523D01*
X172464569Y-89392304D01*
X172436108Y-89453338D01*
X172362900Y-89530659D01*
X172094416Y-89628379D01*
X171988635Y-89616205D01*
X171927601Y-89587745D01*
G04 #@! TO.C,U34*
X163434960Y-131681645D02*
X162914608Y-132301776D01*
X162889869Y-132405341D01*
X162895738Y-132472429D01*
X162938086Y-132570125D01*
X163083999Y-132692561D01*
X163187565Y-132717300D01*
X163254652Y-132711431D01*
X163352348Y-132669083D01*
X163872700Y-132048952D01*
X164164526Y-132293823D02*
X164638744Y-132691740D01*
X164138525Y-132769303D01*
X164247960Y-132861130D01*
X164290307Y-132958826D01*
X164296177Y-133025914D01*
X164271437Y-133129479D01*
X164118393Y-133311871D01*
X164020696Y-133354218D01*
X163953609Y-133360088D01*
X163850044Y-133335348D01*
X163631174Y-133151695D01*
X163588826Y-133053998D01*
X163582957Y-132986911D01*
X165081091Y-133498048D02*
X164652566Y-134008745D01*
X165143571Y-133053177D02*
X164502046Y-133447307D01*
X164976264Y-133845223D01*
G04 #@! TO.C,U35*
X122098111Y-149541016D02*
X122895336Y-149681589D01*
X122997397Y-149651231D01*
X123052561Y-149612604D01*
X123115995Y-149527082D01*
X123149070Y-149339500D01*
X123118713Y-149237439D01*
X123080086Y-149182275D01*
X122994564Y-149118841D01*
X122197339Y-148978269D01*
X122263490Y-148603104D02*
X122370987Y-147993461D01*
X122688269Y-148387882D01*
X122713076Y-148247195D01*
X122776509Y-148161673D01*
X122831674Y-148123046D01*
X122933734Y-148092689D01*
X123168212Y-148134034D01*
X123253734Y-148197467D01*
X123292361Y-148252632D01*
X123322719Y-148354692D01*
X123273105Y-148636065D01*
X123209671Y-148721588D01*
X123154507Y-148760214D01*
X122528097Y-147102445D02*
X122445407Y-147571401D01*
X122906095Y-147700986D01*
X122867468Y-147645821D01*
X122837110Y-147543761D01*
X122878455Y-147309283D01*
X122941889Y-147223761D01*
X122997053Y-147185134D01*
X123099113Y-147154777D01*
X123333591Y-147196121D01*
X123419114Y-147259555D01*
X123457740Y-147314719D01*
X123488098Y-147416780D01*
X123446753Y-147651258D01*
X123383320Y-147736780D01*
X123328155Y-147775407D01*
G04 #@! TO.C,U36*
X87470284Y-120428705D02*
X87747157Y-121189409D01*
X87824478Y-121262617D01*
X87885512Y-121291077D01*
X87991293Y-121303251D01*
X88170282Y-121238105D01*
X88243490Y-121160784D01*
X88271951Y-121099750D01*
X88284124Y-120993969D01*
X88007251Y-120233265D01*
X88365229Y-120102972D02*
X88946944Y-119891245D01*
X88764006Y-120363230D01*
X88898248Y-120314370D01*
X89004029Y-120326544D01*
X89065063Y-120355005D01*
X89142384Y-120428212D01*
X89223817Y-120651949D01*
X89211643Y-120757730D01*
X89183183Y-120818764D01*
X89109975Y-120896085D01*
X88841491Y-120993805D01*
X88735710Y-120981631D01*
X88674676Y-120953170D01*
X89752394Y-119598085D02*
X89573405Y-119663232D01*
X89500198Y-119740552D01*
X89471737Y-119801586D01*
X89431102Y-119968401D01*
X89451502Y-120163677D01*
X89581795Y-120521655D01*
X89659116Y-120594863D01*
X89720150Y-120623324D01*
X89825931Y-120635498D01*
X90004920Y-120570351D01*
X90078128Y-120493030D01*
X90106589Y-120431996D01*
X90118762Y-120326215D01*
X90037329Y-120102479D01*
X89960008Y-120029271D01*
X89898975Y-120000810D01*
X89793193Y-119988637D01*
X89614204Y-120053783D01*
X89540996Y-120131104D01*
X89512536Y-120192138D01*
X89500362Y-120297919D01*
G04 #@! TO.C,U37*
X101726690Y-69668167D02*
X101106559Y-70188519D01*
X101064211Y-70286215D01*
X101058341Y-70353302D01*
X101083081Y-70456868D01*
X101205517Y-70602781D01*
X101303213Y-70645129D01*
X101370300Y-70650998D01*
X101473866Y-70626258D01*
X102093997Y-70105906D01*
X102338868Y-70397733D02*
X102736785Y-70871951D01*
X102230696Y-70861474D01*
X102322522Y-70970909D01*
X102347262Y-71074475D01*
X102341393Y-71141562D01*
X102299045Y-71239258D01*
X102116653Y-71392303D01*
X102013088Y-71417042D01*
X101946001Y-71411173D01*
X101848304Y-71368825D01*
X101664651Y-71149955D01*
X101639911Y-71046390D01*
X101645781Y-70979303D01*
X102951047Y-71127299D02*
X103379572Y-71637995D01*
X102338047Y-71952478D01*
G04 #@! TO.C,U38*
X144581798Y-64797142D02*
X145342502Y-65074015D01*
X145448283Y-65061841D01*
X145509317Y-65033381D01*
X145586638Y-64960173D01*
X145651784Y-64781184D01*
X145639610Y-64675403D01*
X145611150Y-64614369D01*
X145537942Y-64537048D01*
X144777238Y-64260175D01*
X144907532Y-63902196D02*
X145119259Y-63320482D01*
X145363230Y-63764006D01*
X145412090Y-63629764D01*
X145489411Y-63556556D01*
X145550445Y-63528096D01*
X145656226Y-63515922D01*
X145879962Y-63597355D01*
X145953170Y-63674676D01*
X145981631Y-63735710D01*
X145993805Y-63841491D01*
X145896085Y-64109975D01*
X145818764Y-64183183D01*
X145757730Y-64211643D01*
X145717424Y-62930095D02*
X145640104Y-63003303D01*
X145579070Y-63031763D01*
X145473288Y-63043937D01*
X145428541Y-63027650D01*
X145355333Y-62950330D01*
X145326873Y-62889296D01*
X145314699Y-62783515D01*
X145379845Y-62604526D01*
X145457166Y-62531318D01*
X145518200Y-62502857D01*
X145623981Y-62490683D01*
X145668728Y-62506970D01*
X145741936Y-62584291D01*
X145770397Y-62645324D01*
X145782571Y-62751106D01*
X145717424Y-62930095D01*
X145729598Y-63035876D01*
X145758059Y-63096910D01*
X145831267Y-63174230D01*
X146010256Y-63239377D01*
X146116037Y-63227203D01*
X146177071Y-63198743D01*
X146254391Y-63125535D01*
X146319538Y-62946546D01*
X146307364Y-62840765D01*
X146278904Y-62779731D01*
X146205696Y-62702410D01*
X146026707Y-62637263D01*
X145920925Y-62649437D01*
X145859891Y-62677898D01*
X145782571Y-62751106D01*
G04 #@! TO.C,U39*
X172102445Y-97528097D02*
X172243017Y-98325322D01*
X172306451Y-98410845D01*
X172361615Y-98449471D01*
X172463675Y-98479829D01*
X172651258Y-98446753D01*
X172736780Y-98383320D01*
X172775407Y-98328155D01*
X172805764Y-98226095D01*
X172665192Y-97428869D01*
X173040357Y-97362718D02*
X173650000Y-97255221D01*
X173387882Y-97688269D01*
X173528569Y-97663462D01*
X173630629Y-97693820D01*
X173685794Y-97732446D01*
X173749227Y-97817969D01*
X173790572Y-98052447D01*
X173760214Y-98154507D01*
X173721588Y-98209671D01*
X173636065Y-98273105D01*
X173354692Y-98322719D01*
X173252632Y-98292361D01*
X173197467Y-98253734D01*
X174292604Y-98157339D02*
X174480186Y-98124264D01*
X174565709Y-98060830D01*
X174604335Y-98005665D01*
X174673320Y-97848441D01*
X174687139Y-97652589D01*
X174620988Y-97277425D01*
X174557554Y-97191902D01*
X174502390Y-97153276D01*
X174400329Y-97122918D01*
X174212747Y-97155994D01*
X174127225Y-97219427D01*
X174088598Y-97274592D01*
X174058240Y-97376652D01*
X174099585Y-97611130D01*
X174163019Y-97696652D01*
X174218183Y-97735279D01*
X174320243Y-97765637D01*
X174507826Y-97732561D01*
X174593348Y-97669127D01*
X174631975Y-97613963D01*
X174662332Y-97511903D01*
G04 #@! TO.C,U40*
X157520646Y-137730955D02*
X156900515Y-138251307D01*
X156858167Y-138349003D01*
X156852297Y-138416090D01*
X156877037Y-138519656D01*
X156999473Y-138665569D01*
X157097169Y-138707917D01*
X157164256Y-138713786D01*
X157267822Y-138689046D01*
X157887953Y-138168694D01*
X158214175Y-139076045D02*
X157703478Y-139504570D01*
X158352956Y-138648782D02*
X157652737Y-138925524D01*
X158050653Y-139399742D01*
X158928657Y-139408957D02*
X158989875Y-139481914D01*
X159014614Y-139585479D01*
X159008745Y-139652566D01*
X158966397Y-139750262D01*
X158851093Y-139909177D01*
X158668701Y-140062221D01*
X158492179Y-140148179D01*
X158388614Y-140172918D01*
X158321526Y-140167049D01*
X158223830Y-140124701D01*
X158162612Y-140051745D01*
X158137873Y-139948179D01*
X158143742Y-139881092D01*
X158186090Y-139783396D01*
X158301394Y-139624482D01*
X158483786Y-139471437D01*
X158660308Y-139385479D01*
X158763873Y-139360740D01*
X158830961Y-139366609D01*
X158928657Y-139408957D01*
G04 #@! TO.C,U41*
X113542106Y-147155122D02*
X114302810Y-147431995D01*
X114408591Y-147419821D01*
X114469625Y-147391361D01*
X114546946Y-147318153D01*
X114612092Y-147139164D01*
X114599918Y-147033383D01*
X114571458Y-146972349D01*
X114498250Y-146895028D01*
X113737546Y-146618155D01*
X114360224Y-145881963D02*
X114986686Y-146109977D01*
X113920813Y-145975406D02*
X114510588Y-146443443D01*
X114722315Y-145861728D01*
X115344993Y-145125537D02*
X115149553Y-145662504D01*
X115247273Y-145394020D02*
X114307580Y-145052000D01*
X114409249Y-145190355D01*
X114466170Y-145312423D01*
X114478344Y-145418204D01*
G04 #@! TO.C,U42*
X85268797Y-111823289D02*
X85409369Y-112620514D01*
X85472803Y-112706037D01*
X85527967Y-112744663D01*
X85630027Y-112775021D01*
X85817610Y-112741945D01*
X85903132Y-112678512D01*
X85941759Y-112623347D01*
X85972116Y-112521287D01*
X85831544Y-111724061D01*
X86780443Y-111895220D02*
X86896209Y-112551759D01*
X86479813Y-111561400D02*
X86369370Y-112306179D01*
X86979013Y-112198683D01*
X87208054Y-111578053D02*
X87246681Y-111522888D01*
X87332203Y-111459455D01*
X87566681Y-111418110D01*
X87668742Y-111448468D01*
X87723906Y-111487094D01*
X87787340Y-111572617D01*
X87803878Y-111666408D01*
X87781789Y-111815363D01*
X87318269Y-112477338D01*
X87927912Y-112369842D01*
G04 #@! TO.C,x1*
X150456780Y-128580495D02*
X149790114Y-128056685D01*
X149790114Y-128580495D02*
X150456780Y-128056685D01*
X150456780Y-127151923D02*
X150456780Y-127723352D01*
X150456780Y-127437638D02*
X149456780Y-127437638D01*
X149599638Y-127532876D01*
X149694876Y-127628114D01*
X149742495Y-127723352D01*
G04 #@! TD*
M02*
