M48
;DRILL file {KiCad 5.0.2+dfsg1-1} date Tue 22 Sep 2020 02:15:14 PM CEST
;FORMAT={3:3/ absolute / metric / suppress leading zeros}
FMAT,2
METRIC,TZ
T1C0.400
T2C0.762
T3C0.900
%
G90
G05
T1
X81661Y-113502
X81750Y-96495
X83536Y-108107
X83637Y-100975
X83688Y-110139
X84856Y-93147
X84978Y-117216
X87554Y-80442
X87569Y-129520
X87700Y-124765
X87732Y-85415
X91440Y-94539
X91791Y-78120
X91877Y-131679
X92000Y-100000
X92075Y-111760
X93000Y-114000
X95352Y-96520
X96520Y-85725
X96520Y-106680
X96520Y-125095
X96942Y-72045
X96998Y-137952
X97790Y-96520
X98450Y-67475
X98598Y-142530
X99060Y-91440
X100965Y-90170
X102000Y-78000
X102489Y-67356
X102870Y-111760
X102870Y-120650
X102870Y-122555
X103000Y-131000
X103205Y-143205
X103835Y-101397
X103845Y-103988
X103886Y-109068
X103886Y-114656
X104024Y-133985
X104140Y-125730
X104155Y-66197
X104242Y-106121
X104775Y-74930
X104851Y-110744
X105271Y-87491
X107000Y-135000
X107315Y-130810
X108000Y-74000
X109700Y-147000
X109855Y-135255
X110317Y-62667
X110900Y-147500
X111899Y-82054
X112395Y-73025
X113228Y-58994
X113243Y-151044
X116205Y-68580
X116205Y-72390
X117406Y-140970
X117475Y-137160
X117937Y-150175
X118080Y-59858
X121285Y-73660
X124460Y-141605
X125867Y-58471
X125893Y-151430
X126000Y-68000
X126000Y-148000
X128400Y-117400
X128600Y-84600
X128600Y-90400
X128800Y-114400
X129901Y-56058
X130018Y-154015
X131445Y-74930
X131500Y-65985
X131500Y-123600
X132500Y-84500
X133990Y-58440
X134000Y-68000
X134082Y-151597
X136804Y-76098
X141874Y-149946
X142000Y-147000
X142077Y-59858
X142240Y-140970
X142618Y-119000
X143104Y-94000
X143408Y-68986
X143408Y-77470
X144729Y-99212
X144729Y-104597
X144780Y-103442
X146000Y-141000
X146304Y-112776
X146456Y-119126
X146726Y-151079
X146741Y-58822
X147000Y-128000
X148031Y-59741
X148184Y-107340
X148404Y-91000
X148590Y-62789
X149075Y-111474
X149250Y-108382
X149352Y-65888
X149352Y-109982
X149403Y-60198
X149403Y-64567
X149733Y-147137
X149860Y-73660
X149860Y-137160
X150093Y-111096
X150368Y-96520
X150470Y-62230
X151028Y-110642
X152000Y-107000
X152296Y-115672
X152438Y-111618
X153000Y-137000
X153111Y-128168
X154000Y-71000
X154229Y-81534
X154305Y-134620
X154686Y-80162
X154957Y-114402
X155042Y-142088
X155143Y-68885
X155448Y-112928
X155453Y-90174
X155550Y-133299
X155941Y-143637
X156058Y-117246
X156312Y-121107
X156595Y-92363
X156986Y-97333
X157409Y-142535
X157836Y-94590
X158115Y-80010
X158750Y-75565
X158750Y-101956
X160020Y-92710
X160020Y-102464
X160020Y-121285
X160020Y-134671
X160122Y-129946
X161290Y-91440
X161290Y-102819
X161290Y-116434
X161371Y-142448
X161442Y-67513
X161925Y-81915
X162154Y-126797
X162560Y-103175
X162560Y-115722
X162926Y-137881
X163154Y-72253
X163170Y-125882
X163830Y-103480
X163830Y-115164
X164236Y-80823
X165100Y-103734
X166000Y-62586
X167538Y-122377
X167640Y-86995
X167945Y-95301
X168143Y-131938
X168173Y-78425
X169113Y-99365
X169113Y-115164
X169875Y-86462
X170000Y-109000
X172000Y-76000
X172268Y-124678
X172268Y-129438
X172334Y-85527
X172466Y-80437
X173000Y-116000
X174976Y-93055
X175007Y-117373
X176200Y-100100
X176400Y-101900
X176494Y-109129
X178181Y-113457
X178313Y-96418
T2
X161138Y-61316
X162408Y-62586
X163678Y-63856
X171298Y-71476
X172568Y-72746
X173838Y-74016
X167284Y-103175
X167284Y-105715
X167284Y-108255
X167284Y-110795
X167284Y-113335
X146304Y-86360
X146304Y-88900
X146304Y-91440
X146304Y-93980
X146304Y-96520
X132063Y-140868
X134163Y-140868
X136263Y-140868
X140767Y-86360
X140767Y-88900
X140767Y-91440
X140767Y-93980
X140767Y-96520
X140767Y-99060
T3
X130000Y-135000
X140160Y-135000
X130000Y-128000
X140160Y-128000
T2
X129963Y-140699G85X129963Y-141037
G05
X138363Y-140699G85X138363Y-141037
G05
T0
M30
